<?xml version="1.0" encoding="utf-8"?>
<!-- Generator: Adobe Illustrator 27.8.1, SVG Export Plug-In . SVG Version: 6.00 Build 0)  -->
<svg version="1.1" id="レイヤー_1" xmlns="http://www.w3.org/2000/svg" xmlns:xlink="http://www.w3.org/1999/xlink" x="0px"
	 y="0px" viewBox="0 0 400 400" style="enable-background:new 0 0 400 400;" xml:space="preserve">
<style type="text/css">
	.st0{fill:#EA4335;}
	.st1{fill:#FFFFFF;}
</style>
<g id="レイヤー_2_00000131349845084956405250000012017331894307458233_">
	<g id="Dark_Blue">
		<path class="st0" d="M350,400H50c-27.6,0-50-22.4-50-50V50C0,22.4,22.4,0,50,0h300c27.6,0,50,22.4,50,50v300
			C400,377.6,377.6,400,350,400z"/>
	</g>
</g>
<g id="レイヤー_1_00000060020423913588762640000008823854516932165006_">
	<path class="st1" d="M105.7,301.2c-8.4,0-15.6-3-21.7-9c-6-6-9-13.2-9-21.7V129.4c0-8.4,3-15.6,9-21.7c6-6,13.2-9,21.7-9h188.6
		c8.4,0,15.6,3,21.7,9c6,6,9,13.2,9,21.7v141.1c0,8.4-3,15.6-9,21.7c-6,6-13.2,9-21.7,9L105.7,301.2L105.7,301.2z M200,218.2
		l94.3-57.6v-31.2l-94.3,59l-94.3-59v31.2L200,218.2z"/>
</g>
</svg>
